<?xml version="1.0" encoding="utf-8"?>
<!-- Generator: Adobe Illustrator 20.1.0, SVG Export Plug-In . SVG Version: 6.00 Build 0)  -->
<svg version="1.1" id="图层_1" xmlns="http://www.w3.org/2000/svg" xmlns:xlink="http://www.w3.org/1999/xlink" x="0px" y="0px"
	 viewBox="0 0 128 128" style="enable-background:new 0 0 128 128;" xml:space="preserve">
<style type="text/css">
	.st0{fill:#FFCA2B;}
	.st1{fill:#FFFFFF;}
</style>
<circle class="st0" cx="64" cy="64" r="64"/>
<path class="st1" d="M93,35h-3.4v-1c0-3-2.5-5.5-5.5-5.5H84c-3,0-5.5,2.5-5.5,5.5v1H48.2v-1c0-3-2.5-5.5-5.5-5.5h-0.1
	c-3,0-5.5,2.5-5.5,5.5v1h-3.4c-3,0-5.5,2.5-5.5,5.5v52.6c0,3,2.5,5.5,5.5,5.5H93c3,0,5.5-2.5,5.5-5.5V40.5C98.5,37.5,96,35,93,35
	L93,35z M80.7,34c0-1.8,1.5-3.3,3.3-3.3h0.1c1.8,0,3.3,1.5,3.3,3.3v9.8c0,1.8-1.5,3.3-3.3,3.3H84c-1.8,0-3.3-1.5-3.3-3.3V34L80.7,34
	z M39.4,34c0-1.8,1.5-3.3,3.3-3.3h0.1c1.8,0,3.3,1.5,3.3,3.3v9.8c0,1.8-1.5,3.3-3.3,3.3h-0.1c-1.8,0-3.3-1.5-3.3-3.3V34L39.4,34z
	 M93,94.2H33.8c-0.6,0-1.1-0.5-1.1-1.1V54.4h61.4v38.7C94.1,93.7,93.6,94.2,93,94.2L93,94.2z M40.8,62.3h10.1v5H40.8V62.3L40.8,62.3
	z M58.4,62.3h10v5h-10V62.3L58.4,62.3z M76,62.3h9.9v5H76V62.3L76,62.3z M40.8,72.4h10.1v4.9H40.8V72.4L40.8,72.4z M58.4,72.4h10
	v4.9h-10V72.4L58.4,72.4z M76,72.4h9.9v4.9H76V72.4L76,72.4z M40.8,82.3h10.1v5.1H40.8V82.3L40.8,82.3z M58.4,82.3h10v5.1h-10V82.3
	L58.4,82.3z M76,82.3h9.9v5.1H76V82.3L76,82.3z"/>
</svg>
