<?xml version="1.0" encoding="utf-8"?>
<!-- Generator: Adobe Illustrator 20.1.0, SVG Export Plug-In . SVG Version: 6.00 Build 0)  -->
<svg version="1.1" id="Layer_1" xmlns="http://www.w3.org/2000/svg" xmlns:xlink="http://www.w3.org/1999/xlink" x="0px" y="0px"
	 viewBox="0 0 128 128" style="enable-background:new 0 0 128 128;" xml:space="preserve">
<style type="text/css">
	.st0{fill:#42D6BA;}
	.st1{fill:#FFFFFF;}
</style>
<circle class="st0" cx="64" cy="64" r="64"/>
<g>
	<path class="st1" d="M57.5,49.1c1,0.4,2,0.6,3.1,0.6c2.5,0,4.9-1.1,6.5-2.9c1.7-1.9,2.4-4.4,2.1-6.9c-0.3-2.4-1.7-4.6-3.7-6
		s-4.7-1.9-7.1-1.3C56,33.2,54,34.8,52.9,37c-1.2,2.2-1.3,4.9-0.4,7.2C53.4,46.4,55.3,48.2,57.5,49.1z"/>
	<path class="st1" d="M66.4,94.3L66.4,94.3L66.4,94.3L66.4,94.3L66.4,94.3z"/>
	<path class="st1" d="M82.1,32.3L82.1,32.3C82,32.2,82,32.3,82.1,32.3z"/>
	<path class="st1" d="M81.9,32.2C81.8,32.2,81.8,32.1,81.9,32.2C81.8,32.1,81.8,32.1,81.9,32.2z"/>
	<path class="st1" d="M81.7,32.1L81.7,32.1L81.7,32.1z"/>
	<path class="st1" d="M85.6,35.6l1.3-1.5c0.4-0.4,1-0.5,1.5-0.2l13.3,8.1l2.4-4.2c0.2-0.4,0-0.9-0.5-1.1l-14.4-5.8
		c-0.5-0.2-1.1,0-1.3,0.4L87,32.7l-0.7-0.3c-1.4-0.6-2.9-0.5-4.1,0l0,0c-1.2-0.8-2.7-0.5-3.6,0.7c0,0-8.1,12.3-10.8,15.5
		c-2.1,2.5-4,3.1-7,2.7c-1.4-0.2-19.5-4.7-19.5-4.7c-1-0.2-2,0.1-2.6,0.9c-1.8-0.2-3.6,0.6-4.5,2.3l-0.4,0.6l-1.6-0.9
		c-0.4-0.2-1-0.1-1.2,0.4l-6.9,12.8c-0.2,0.4-0.1,1,0.4,1.2l4.5,2.4l4.6-14.1c0.2-0.5,0.7-0.8,1.2-0.6l1.9,0.6l0.1-0.2l-1.4-0.7
		l0.4-0.6c0.5-0.9,1.4-1.4,2.4-1.4c0,0.5,0.2,0.9,0.5,1.3c-0.5,0.5-0.8,1.1-1,1.7L37.5,53l-1.9-0.6c-0.5-0.2-1.1,0.1-1.2,0.6
		l-4.9,15.1c-0.2,0.5,0.1,1.1,0.6,1.2l13,4.2c0.5,0.2,1.1-0.1,1.2-0.6l4.7-15c0.2-0.5-0.1-1.1-0.6-1.2L46.5,56l0.2-0.7
		c0.1-0.4,0.2-0.7,0.2-1.1l12.4,4.6c0.1,0.4,1.1,3,1.6,5.7c0.4,1.7,0.5,3.5,0.6,5.3c0.1,1.2,0,2.5,0,3.7c0,1.3,0.2,2.5,0.7,3.7
		c0,1.6-0.1,3.2-0.2,4.8c-0.1,1.8-0.4,3.5-0.7,5.2c-0.4,2.2-0.9,3.1-1,3.1c-0.7,0.3-1.5,0.2-2.3,0.1c-0.9-0.1-1.7-0.3-2.6-0.6
		c-0.7-0.2-1.5-0.5-2.2-0.7c-0.6-0.2-1.1-0.5-1.7-0.7c-0.2-0.1-0.5-0.2-0.8-0.3C50.4,88,50.1,88,49.8,88c-0.6,0-1.2,0.3-1.7,0.6
		c-1,0.7-1.5,2.1-1.2,3.3c0.2,0.8,0.8,1.6,1.6,2c2.5,1.4,5.2,2.6,8,3.2c1.5,0.3,3.1,0.5,4.6,0.3c1.6-0.2,3.1-0.9,4.3-2
		c0.3-0.3,0.5-0.6,0.8-0.9c0.1-0.2,0.3-0.4,0.4-0.6c0.2-0.4,0.4-0.7,0.6-1.1c0.4-0.7,0.7-1.5,1-2.3c0.6-1.6,1.1-3.2,1.4-4.9
		c0.2-1.1,0.5-2.1,0.7-3.2c0.4,0,0.9-0.1,1.3-0.1c0.8,1.6,1.5,3.2,2.1,4.9c-1.7,0.6-2.4,2.6-1.7,4.2c0.5,1.1,1.1,2.1,1.8,3
		c0.9,0.9,2,1.7,3.2,2.1c0.7,0.2,1.4,0.2,2.1,0.1c1.4-0.2,2.6-1.3,2.9-2.8c0.6-3.2,0-6.5-0.7-9.7c-0.4-1.7-0.9-3.4-1.4-5.1
		c-0.4-1.1-0.7-2.2-1.2-3.2c-0.1-0.2-0.2-0.4-0.2-0.6c0.1-0.7,0.1-1.4,0.1-2.1c-0.1-0.7-0.1-1.4-0.2-2.1c-0.2-1.7-0.4-3.4-0.7-5
		c-0.7-3.5-1.6-6.9-3-10.2c-0.4-0.9-0.8-1.8-1.2-2.6l5.2-9.6l0.6,0.4L78,45.5c-0.4,0.4-0.2,0.9,0.2,1.2l14.1,8.5
		c0.5,0.3,1.2,0.2,1.5-0.2l8.7-10.1c0.4-0.4,0.2-0.9-0.2-1.2l-14.1-8.5c-0.5-0.3-1.2-0.2-1.5,0.2l-1.3,1.5L85,36.1
		c-0.6-0.4-1.2-0.6-1.8-0.7c0.2-0.5,0.2-1.1,0-1.5c0.7-0.2,1.5-0.2,2.3,0.1l0.7,0.3L85.6,35.6L85.6,35.6z M44.8,54.6l-0.2,0.7
		l-5.5-1.8l0.2-0.7c0.2-0.5,0.5-0.9,0.8-1.2l4.7,1.8C44.9,53.8,44.9,54.2,44.8,54.6z M83.6,37.5l0.7,0.4l-3.6,4.2L80,41.7
		c-0.1,0-0.1-0.1-0.2-0.1l2.4-4.5C82.7,37,83.2,37.2,83.6,37.5z"/>
	<path class="st1" d="M81.9,32.2L81.9,32.2L81.9,32.2z"/>
</g>
</svg>
