<?xml version="1.0" encoding="utf-8"?>
<!-- Generator: Adobe Illustrator 20.1.0, SVG Export Plug-In . SVG Version: 6.00 Build 0)  -->
<svg version="1.1" id="Capa_1" xmlns="http://www.w3.org/2000/svg" xmlns:xlink="http://www.w3.org/1999/xlink" x="0px" y="0px"
	 viewBox="0 0 64 64" style="enable-background:new 0 0 64 64;" xml:space="preserve">
<style type="text/css">
	.st0{fill:none;stroke:#949494;stroke-width:3;stroke-miterlimit:10;}
</style>
<g>
	<path class="st0" d="M54.5,23.9L36.7,4.4c-1.2-1.3-4.4-1.9-4.4-1.9S29,3.1,27.9,4.4L3.6,31c-1,1-1.1,2.4-0.8,3.8
		c0.5,1.3,1.6,2,2.9,2h3.6V49c0,6.9,5.7,12.5,12.1,12.5h-0.3c1.6,0,3.1-1.5,3.1-3.3l0.2-21.4h15.4v21.4c0,1.8,1.3,3.4,3.1,3.4h0.4
		c6.6,0,11.4-5.7,11.4-12.5V36.9v-0.1h4.1c1.2,0,2.9-2,2.9-2S61.8,32,61,31l-6.6-7.4"/>
</g>
</svg>
