<?xml version="1.0" encoding="utf-8"?>
<!-- Generator: Adobe Illustrator 20.1.0, SVG Export Plug-In . SVG Version: 6.00 Build 0)  -->
<svg version="1.1" id="Layer_1" xmlns="http://www.w3.org/2000/svg" xmlns:xlink="http://www.w3.org/1999/xlink" x="0px" y="0px"
	 viewBox="0 0 64 64" style="enable-background:new 0 0 64 64;" xml:space="preserve">
<style type="text/css">
	.st0{fill:#FF5310;stroke:#FF5310;stroke-width:3;stroke-miterlimit:10;}
</style>
<path class="st0" d="M50.5,39.4h-3.7c-4.1,0-7.4-3.4-7.4-7.4v-0.5c3.4-3.9,5.6-10,5.6-14.4c0-7.2-1.8-14.9-13-14.9s-13,7.7-13,14.9
	c0,4.4,2.2,10.5,5.6,14.4V32c0,4.1-3.4,7.4-7.4,7.4h-3.7c0,0-6.7,1.8-11.2,11.2V58c0,2,1.6,3.7,3.7,3.7H58c2,0,3.7-1.6,3.7-3.7v-7.4
	C57.2,41.4,50.5,39.4,50.5,39.4z"/>
</svg>
