<?xml version="1.0" encoding="utf-8"?>
<!-- Generator: Adobe Illustrator 20.1.0, SVG Export Plug-In . SVG Version: 6.00 Build 0)  -->
<svg version="1.1" id="图层_1" xmlns="http://www.w3.org/2000/svg" xmlns:xlink="http://www.w3.org/1999/xlink" x="0px" y="0px"
	 viewBox="0 0 400 400" style="enable-background:new 0 0 400 400;" xml:space="preserve">
<style type="text/css">
	.st0{opacity:0.9;fill:#FFA500;enable-background:new    ;}
	.st1{opacity:0.9;fill:#00EF55;enable-background:new    ;}
</style>
<path class="st0" d="M266.9,79.9c0-37-30-67.1-67.1-67.1c-37,0-67.1,30-67.1,67.1c0,14.7,4.7,28.3,12.8,39.4
	c0.4,0.6,0.9,1.2,1.3,1.7l53,71l53.1-71.1l0,0C261.7,109.5,266.9,95.3,266.9,79.9z M199.9,48.4c17.4,0,31.5,14.1,31.5,31.5
	s-14.1,31.5-31.5,31.5s-31.5-14.1-31.5-31.5S182.5,48.4,199.9,48.4z"/>
<path class="st1" d="M199.9,111.4c-17.4,0-31.6-14.1-31.6-31.5s14.1-31.5,31.6-31.5c17.4,0,31.6,14.1,31.6,31.5
	S217.4,111.4,199.9,111.4"/>
</svg>
