<?xml version="1.0" encoding="utf-8"?>
<!-- Generator: Adobe Illustrator 20.1.0, SVG Export Plug-In . SVG Version: 6.00 Build 0)  -->
<svg version="1.1" id="图层_1" xmlns="http://www.w3.org/2000/svg" xmlns:xlink="http://www.w3.org/1999/xlink" x="0px" y="0px"
	 viewBox="0 0 400 400" style="enable-background:new 0 0 400 400;" xml:space="preserve">
<style type="text/css">
	.st0{opacity:0.9;fill:#FFA500;enable-background:new    ;}
	.st1{opacity:0.9;fill:#00EF55;enable-background:new    ;}
</style>
<g>
	<path class="st0" d="M199.8,12.8c-37,0-67.1,30-67.1,67.1c0,14.7,4.7,28.3,12.8,39.4c0.4,0.6,0.9,1.2,1.3,1.7l53,71l53.1-71.1
		c8.8-11.4,14-25.6,14-41C266.9,42.9,236.9,12.8,199.8,12.8z M199.9,111.4c-17.4,0-31.6-14.1-31.6-31.5c0-17.4,14.1-31.5,31.6-31.5
		c17.4,0,31.6,14.1,31.6,31.5C231.5,97.3,217.4,111.4,199.9,111.4z"/>
	<circle class="st1" cx="199.9" cy="79.9" r="31.5"/>
	<path class="st0" d="M168.4,79.9c0-17.4,14.1-31.5,31.5-31.5c-17.5,0-31.6,14.1-31.6,31.5c0,17.4,14.2,31.5,31.6,31.5
		C182.5,111.4,168.4,97.3,168.4,79.9z"/>
	<path class="st1" d="M168.4,79.9c0-17.4,14.1-31.5,31.5-31.5c-17.5,0-31.6,14.1-31.6,31.5c0,17.4,14.2,31.5,31.6,31.5
		C182.5,111.4,168.4,97.3,168.4,79.9z"/>
	<path class="st0" d="M199.9,48.4c17.4,0,31.5,14.1,31.5,31.5c0,17.4-14.1,31.5-31.5,31.5c17.5,0,31.6-14.1,31.6-31.5
		C231.5,62.5,217.3,48.4,199.9,48.4z"/>
	<path class="st1" d="M199.9,48.4c17.4,0,31.5,14.1,31.5,31.5c0,17.4-14.1,31.5-31.5,31.5c17.5,0,31.6-14.1,31.6-31.5
		C231.5,62.5,217.3,48.4,199.9,48.4z"/>
</g>
</svg>
