<?xml version="1.0" encoding="utf-8"?>
<!-- Generator: Adobe Illustrator 20.1.0, SVG Export Plug-In . SVG Version: 6.00 Build 0)  -->
<svg version="1.1" id="图层_1" xmlns="http://www.w3.org/2000/svg" xmlns:xlink="http://www.w3.org/1999/xlink" x="0px" y="0px"
	 viewBox="0 0 200 200" style="enable-background:new 0 0 200 200;" xml:space="preserve">
<style type="text/css">
	.st0{fill:#FFFFFF;}
</style>
<path class="st0" d="M162.5,11.1c-0.4-0.6-0.9-1.2-1.1-1.3c-1.1-1.2-1.9-2.4-3.5-1.7c-3.5,1.4-5.6,5.4-6.5,9.1
	c-0.8,3.3,2.1,2.4,3.6,2.6c3.1,0.3,2.3,1.4,2.3,4.6c-0.1,20.5-3.1,40.5-10.7,59.7c-3.6,9.2-7.9,18.1-16.7,25.8
	c-1.1-6.1-2.7-10.6-7-13.5c-3.7-2.6-7.6-3.4-11.7-1.1c-3.9,2.2-6.2,5.5-6,10.2c0.2,4.8,3.3,7.4,7.3,9.2c3,1.4,6.3,1.6,9.5,1
	c4.4-0.7,4.8,1.1,3.4,4.6c-0.8,1.9-1.2,4-2.1,5.8c-15,29.8-36.6,53-66.9,67.7c-1.6,0.8-3.9,0.7-4.7,3.4c1.2-0.1,1.9,0.1,2.4-0.2
	c35.4-16.7,61-42.6,74.3-79.9c0.8-2.2,1.1-4.3,3.1-5.9c8.1-6.7,12.7-15.8,16.5-25.3c7.6-19.1,10.8-39.1,11.4-59.6
	c0.1-2.2-1.2-6.4,1.4-6.2C168.2,20.7,164.5,13.8,162.5,11.1z M119.2,114.2c-6.2-0.1-12.1-4.7-12.1-9.3c0-4.4,4.5-8.8,9-8.8
	c5.8,0,11.6,6.5,11.3,12.7C127.3,112.2,124,114.3,119.2,114.2z"/>
</svg>
