<?xml version="1.0" encoding="utf-8"?>
<!-- Generator: Adobe Illustrator 20.1.0, SVG Export Plug-In . SVG Version: 6.00 Build 0)  -->
<svg version="1.1" id="图层_1" xmlns="http://www.w3.org/2000/svg" xmlns:xlink="http://www.w3.org/1999/xlink" x="0px" y="0px"
	 viewBox="0 0 200 200" style="enable-background:new 0 0 200 200;" xml:space="preserve">
<style type="text/css">
	.st0{fill:#999999;}
</style>
<path class="st0" d="M148,136.8c-7.9,0-15.1,3.7-20.1,9.4l-54-36.8c1.2-3.3,1.8-6.8,1.8-10.6c0-3.9-0.6-7.5-1.9-10.8l54.7-34.3
	c5,5.4,11.9,8.7,19.5,8.7c15.2,0,27.6-13.4,27.6-29.8S163.3,2.7,148,2.7s-27.6,13.4-27.6,29.8c0,3.9,0.7,7.6,1.9,10.9L67.7,77.9
	c-5-5.4-11.9-8.8-19.5-8.8c-15.2,0-27.6,13.4-27.6,29.8s12.3,29.8,27.6,29.8c7.8,0,14.8-3.5,19.7-9l54.2,36.9
	c-1.1,3.2-1.6,6.6-1.6,10.2c0,16.5,12.3,29.8,27.6,29.8c15.2,0,27.6-13.4,27.6-29.8C175.6,150.2,163.3,136.8,148,136.8L148,136.8z
	 M148,14.9c9,0,16.4,7.9,16.4,17.7s-7.3,17.7-16.4,17.7s-16.4-7.9-16.4-17.7S139,14.9,148,14.9z M48.2,116.7
	c-9,0-16.4-7.9-16.4-17.7s7.3-17.7,16.4-17.7c5.2,0,9.7,2.5,12.8,6.7c0.1,0.4,0.3,0.7,0.4,1.1c0.3,0.6,0.7,1.1,1.2,1.5
	c1.3,2.5,2.1,5.4,2.1,8.5c0,3.3-0.8,6.3-2.2,8.9c-0.1,0.2-0.3,0.4-0.3,0.6s-0.2,0.4-0.3,0.6C58.7,113.6,53.8,116.7,48.2,116.7
	L48.2,116.7z M148,184.4c-9,0-16.4-7.9-16.4-17.7c0-3.1,0.7-5.8,1.9-8.3c0.2-0.2,0.3-0.5,0.5-0.8s0.3-0.6,0.4-1
	c3-4.6,7.9-7.7,13.4-7.7c9,0,16.4,7.9,16.4,17.7C164.4,176.4,157,184.4,148,184.4L148,184.4z"/>
</svg>
