<?xml version="1.0" encoding="utf-8"?>
<!-- Generator: Adobe Illustrator 20.1.0, SVG Export Plug-In . SVG Version: 6.00 Build 0)  -->
<svg version="1.1" id="图层_1" xmlns="http://www.w3.org/2000/svg" xmlns:xlink="http://www.w3.org/1999/xlink" x="0px" y="0px"
	 viewBox="0 0 200 200" style="enable-background:new 0 0 200 200;" xml:space="preserve">
<style type="text/css">
	.st0{fill:#999999;stroke:#999999;stroke-width:5;stroke-miterlimit:10;}
</style>
<path class="st0" d="M183.7,88.3c-3.4-5.1-7.8-8.3-12.6-9.2c-1.1-3.3-3.7-5.9-7-7c-1.6-15.6-8.8-30.1-20.4-40.8
	C131.6,20.1,116,14,99.6,14s-32,6.1-44,17.2C44,42,36.7,56.4,35.1,72.1c-3.3,1.1-6,3.7-7,7c-4.8,1-9.3,4.1-12.6,9.2
	c-3.8,5.7-5.9,13.2-5.9,21.1s2.1,15.4,5.9,21.1c3.4,5.1,7.8,8.3,12.6,9.2c1.4,4.3,5.5,7.5,10.3,7.5c6,0,10.8-4.9,10.8-10.8v-54
	c0-4.6-2.8-8.5-6.8-10.1c1.5-13.7,7.9-26.4,18.1-35.8C71.1,26.6,85,21.2,99.6,21.2s28.5,5.5,39.1,15.4c10.2,9.4,16.5,22.1,18.1,35.8
	c-4,1.6-6.8,5.5-6.8,10.1v54c0,4.7,3,8.6,7.1,10.2c-1.1,14.2-10.1,22.2-25.1,22.2h-11.4c-1.5-4.2-5.5-7.2-10.2-7.2h-18
	c-6,0-10.8,4.9-10.8,10.8s4.9,10.8,10.8,10.8h18c4.7,0,8.7-3,10.2-7.2H132c19,0,31.1-11.2,32.3-29.4l0,0c3.2-1.1,5.7-3.7,6.8-6.9
	c4.8-1,9.3-4.1,12.6-9.2c3.8-5.7,5.9-13.2,5.9-21.1C189.6,101.5,187.5,94,183.7,88.3z M42,136.4c0,2-1.6,3.6-3.6,3.6
	s-3.6-1.6-3.6-3.6s-1.6-3.6-3.6-3.6c-7.8,0-14.4-10.7-14.4-23.4S23.4,86,31.2,86c2,0,3.6-1.6,3.6-3.6s1.6-3.6,3.6-3.6
	s3.6,1.6,3.6,3.6C42,82.4,42,136.4,42,136.4z M110.4,176h-18c-2,0-3.6-1.6-3.6-3.6s1.6-3.6,3.6-3.6h18c2,0,3.6,1.6,3.6,3.6
	S112.4,176,110.4,176z M168,132.8c-2,0-3.6,1.6-3.6,3.6s-1.6,3.6-3.6,3.6s-3.6-1.6-3.6-3.6v-54c0-2,1.6-3.6,3.6-3.6s3.6,1.6,3.6,3.6
	S166,86,168,86c7.8,0,14.4,10.7,14.4,23.4S175.8,132.8,168,132.8z"/>
</svg>
