<?xml version="1.0" encoding="utf-8"?>
<!-- Generator: Adobe Illustrator 20.1.0, SVG Export Plug-In . SVG Version: 6.00 Build 0)  -->
<svg version="1.1" id="图层_1" xmlns="http://www.w3.org/2000/svg" xmlns:xlink="http://www.w3.org/1999/xlink" x="0px" y="0px"
	 viewBox="0 0 200 200" style="enable-background:new 0 0 200 200;" xml:space="preserve">
<style type="text/css">
	.st0{fill:#999999;}
</style>
<path class="st0" d="M173,181.2l16.6-16.7c4.5-4.6,4.5-12,0-16.7L156.2,123c-5.7-3.8-12-4.5-16.6,0l-10.2,10.2
	c-10.2-7.5-21.2-16.6-31.5-26.8c-11.5-11.5-22-24.3-30.7-35.8l9.8-9.9c4.5-4.6,3.8-11,0-16.7L52,10.7c-3.9-5.6-12-4.5-16.7,0
	L18.8,27.4c-9.2,9.3-6.2,21.2,0.1,33.4c0,0,20.7,36.8,52.2,68.2c29.7,29.5,68.7,52.3,68.7,52.3C152.9,186.1,163.8,190.4,173,181.2z
	 M148.1,172.9c-18.7-9.8-47.6-31.6-66.6-49.8c-22.9-21-54.3-70.7-54.3-70.7c-2.1-3.8-2.3-14.5,0.7-17.4l10.5-10.6
	c3.6-2.2,7.9-3.2,10.6,0l16,21.2c2.5,3.6,3,7.6,0,10.6l-13,13c2.2,3.1,34.5,52.1,78.9,79.3l13.3-13.4c2.9-3,7-2.5,10.6,0L176,151
	c3.9,2.9,3,7.6,0,10.6l-10.5,10.6C161.6,176.3,152.4,175.2,148.1,172.9z"/>
</svg>
