<?xml version="1.0" encoding="utf-8"?>
<!-- Generator: Adobe Illustrator 20.1.0, SVG Export Plug-In . SVG Version: 6.00 Build 0)  -->
<svg version="1.1" id="图层_1" xmlns="http://www.w3.org/2000/svg" xmlns:xlink="http://www.w3.org/1999/xlink" x="0px" y="0px"
	 viewBox="0 0 200 200" style="enable-background:new 0 0 200 200;" xml:space="preserve">
<style type="text/css">
	.st0{fill:#FDAC23;}
	.st1{fill:#FFFFFF;}
</style>
<path class="st0" d="M34.8,191.1c3-41-8.1-77.5-33.1-109.2c-3.3-4.2-1.3-10.5,3.8-11.8c38.2-9.7,67.9-32,89.1-66.6
	c2.9-4.7,9.2-4.6,12,0.1c20.7,34.9,50,57.6,88.1,67.9c5.1,1.4,7,7.7,3.6,11.9c-25.5,31.4-37.1,67.6-34.6,108.7
	c0.3,5.5-4.8,9.4-9.8,7.2c-36.4-15.6-72.9-15.9-109.5-0.9C39.5,200.5,34.3,196.6,34.8,191.1z"/>
<g>
	<path class="st1" d="M39,77.7c0,0,0.2-0.2,0.7-0.6c0.5-0.3,1-0.9,1.8-1.5s1.7-1.4,2.8-2.3c0.5-0.5,1-0.8,1.6-1.4
		c0.2-0.2,0.6-0.3,1-0.5c0.3-0.1,0.7-0.2,1-0.3c0.7-0.2,1.5-0.6,2.2-0.9c0.8-0.3,1.5-0.7,2.3-1s1.6-0.7,2.4-1.1
		c0.8-0.5,1.6-0.8,2.5-1.3c1.6-0.9,3.5-1.8,5.1-3c1.7-1,3.3-2.3,5-3.4c1.6-1.3,3.2-2.5,4.7-3.9c0.8-0.7,1.5-1.3,2.2-2.1
		c0.7-0.7,1.4-1.4,2.1-2.1c1.3-1.4,2.7-2.7,3.7-4.1c0.6-0.7,1.2-1.4,1.6-1.9c0.5-0.7,1-1.3,1.5-1.9c0.2-0.3,0.5-0.6,0.7-0.9
		c0.1-0.3,0.3-0.6,0.7-0.8c0.6-0.5,1.3-0.8,1.7-1.1c1.2-0.8,2.1-1.4,2.9-1.9c0.8-0.6,1.5-1,2-1.3s0.7-0.5,0.7-0.5s0,0.3-0.1,0.8
		c-0.1,0.6-0.2,1.4-0.3,2.3c-0.1,0.5-0.2,1-0.3,1.7c-0.1,0.6-0.3,1.3-0.5,1.9c-0.2,0.7-0.3,1.4-0.6,2.2c-0.1,0.5-0.3,0.7-0.6,1
		c-0.2,0.2-0.5,0.6-0.8,0.9c-0.5,0.7-1,1.4-1.6,2.1s-1.2,1.4-1.7,2.1c-1.2,1.5-2.7,2.9-4,4.5c-0.7,0.7-1.5,1.5-2.3,2.2
		c-0.8,0.8-1.6,1.5-2.4,2.2c-1.6,1.5-3.3,2.9-5.1,4.2c-1.8,1.3-3.6,2.6-5.4,3.8c-1.8,1.3-3.7,2.2-5.5,3.2c-0.9,0.5-1.8,0.9-2.8,1.4
		c-0.9,0.5-1.7,0.9-2.7,1.3c-0.9,0.3-1.7,0.8-2.5,1.1c-0.8,0.3-1.6,0.7-2.4,0.9c-0.3,0.1-0.8,0.2-1.2,0.5c-0.3,0.2-0.7,0.3-1.2,0.3
		c-0.8,0-1.6,0-2.3,0s-1.4,0-2-0.1C43,78.2,42.5,78.2,42,78c-1-0.1-1.8-0.2-2.3-0.3C39.3,77.7,39,77.7,39,77.7z"/>
</g>
</svg>
