<?xml version="1.0" encoding="utf-8"?>
<!-- Generator: Adobe Illustrator 20.1.0, SVG Export Plug-In . SVG Version: 6.00 Build 0)  -->
<svg version="1.1" id="图层_1" xmlns="http://www.w3.org/2000/svg" xmlns:xlink="http://www.w3.org/1999/xlink" x="0px" y="0px"
	 viewBox="0 0 200 200" style="enable-background:new 0 0 200 200;" xml:space="preserve">
<style type="text/css">
	.st0{fill:#FDAC23;}
</style>
<path class="st0" d="M88.7,78.5c0,9.1-4.7,17.2-11.6,20.2v87c0,7.9-5.3,14.2-11.6,14.2H53.7c-6.4,0-11.6-6.5-11.6-14.2v-87
	c-6.9-3.1-11.6-11.2-11.6-20.2V7.1c0-3.9,2.6-7.1,5.8-7.1s5.8,3.2,5.8,7.1v46.5c0,3.9,2.6,7.1,5.8,7.1s5.8-3.2,5.8-7.1V7.1
	c0-3.9,2.6-7.1,5.8-7.1c3.2,0,5.8,3.2,5.8,7.1v46.5c0,3.9,2.6,7.1,5.8,7.1c3.2,0,5.8-3.2,5.8-7.1V7.1c0-3.9,2.6-7.1,5.8-7.1
	s5.8,3.2,5.8,7.1L88.7,78.5L88.7,78.5z M169.6,185.8c0,7.9-5.3,14.2-11.6,14.2h-11.6c-6.4,0-11.6-6.5-11.6-14.2v-57.2h-20.4
	c-1.5,0-2.9-1.7-2.9-3.6V35.7c0-19.6,13.1-35.7,29.1-35.7h23.3c3.2,0,5.8,3.2,5.8,7.1L169.6,185.8L169.6,185.8z"/>
</svg>
