<?xml version="1.0" encoding="utf-8"?>
<!-- Generator: Adobe Illustrator 20.1.0, SVG Export Plug-In . SVG Version: 6.00 Build 0)  -->
<svg version="1.1" id="图层_1" xmlns="http://www.w3.org/2000/svg" xmlns:xlink="http://www.w3.org/1999/xlink" x="0px" y="0px"
	 viewBox="0 0 200 200" style="enable-background:new 0 0 200 200;" xml:space="preserve">
<style type="text/css">
	.st0{fill:#FFFFFF;}
</style>
<path class="st0" d="M116.9,12.8c0.8,0.7,1.6,1.3,2.5,1.8c0.8,0.6,1.7,1.1,2.5,1.7c1.7,1.1,3.4,2,5.2,2.9c1.8,0.9,3.5,1.8,5.3,2.6
	c0.6,0.2,1.1,0.5,1.7,0.7c-10.4,4.1-20.7,8.4-30.2,14.3c-5.2,3.2-10.2,6.9-14.7,11.1c-4.5,4.2-8.5,8.9-11.9,14.1
	c-3.4,5.2-6.2,10.7-8.3,16.5c-2.1,5.8-3.6,11.8-4.3,18c-0.6,6.1-0.4,12.4,1.2,18.4c0.5,1.9,1.2,3.7,2,5.5c-0.7,1.5-1.4,3-2,4.5
	c-2.4,5.7-4.3,11.6-5.8,17.5c-1.6,6-2.8,12-3.6,18.1l0,0l0,0L56.2,187l0.5,0l0.4-3.3c0.1-1.1,0.3-2.2,0.4-3.3l0.6-6.6l0.6-6.6
	c0.2-2.2,0.4-4.4,0.5-6.6l0,0.3c1-5.8,2.4-11.8,4.1-17.5c1.7-5.8,3.7-11.4,6.1-16.8c0.3-0.6,0.5-1.1,0.8-1.7
	c1.6,2.1,3.5,3.9,5.9,5.1c2.9,1.4,6.3,1.6,9.3,0.8c3.1-0.8,5.8-2.4,8.3-4.3c4.9-3.8,8.7-9.1,11-14.9c1.1-2.9,1.9-5.9,2.2-9.1
	c0.1-1.6,0.1-3.1-0.2-4.7c-0.3-1.6-0.9-3.1-1.9-4.4c-1-1.3-2.6-2.1-4.2-2.4c-1.6-0.3-3.2-0.1-4.7,0.4c-3,0.8-5.8,2.4-8.4,4.1
	c-5.2,3.5-9.5,8.1-13,13.1c-1.4,1.9-2.6,3.9-3.8,6c-0.1-0.3-0.2-0.6-0.3-0.9c-1.5-5.3-1.8-11-1.3-16.7c0.5-5.7,1.8-11.4,3.7-17
	c0.5-1.4,1-2.8,1.5-4.1l0.8-2l1-2.1c1.2-2.6,2.6-5.2,4.2-7.7c3.1-5,6.7-9.7,10.9-13.9c4.2-4.2,8.9-7.9,13.9-11.3
	c5-3.4,10.3-6.4,15.7-9.2c4.2-2.1,8.5-4.1,12.8-6.1c-1.1,1.9-2.2,3.9-3.2,5.9c-0.9,1.8-1.7,3.6-2.4,5.4c-0.4,0.9-0.7,1.9-1,2.8
	c-0.3,1-0.6,1.9-0.9,3c0.8-0.6,1.6-1.3,2.4-2c0.8-0.7,1.5-1.4,2.2-2.1c1.4-1.4,2.7-2.9,4-4.4c2.5-3,4.9-6.2,7-9.5l2.2-3.4l-3.7-1.4
	c-1.8-0.7-3.7-1.3-5.6-1.9c-1.9-0.6-3.8-1.1-5.7-1.6c-1.9-0.5-3.9-0.9-5.9-1.2c-1-0.2-2-0.3-3-0.4C118.9,12.9,117.9,12.8,116.9,12.8
	z M78.2,111.1c3.4-4.7,7.4-8.8,11.9-11.8c0.4-0.3,1.3-0.8,1.8-1.1c0.5-0.3,1.2-0.6,1.7-0.9c1.2-0.6,2.4-1,3.4-1.3
	c1.1-0.3,2.1-0.3,2.7-0.2c0.6,0.1,0.9,0.3,1.2,0.7c0.3,0.4,0.7,1.2,0.9,2.2c0.2,1,0.2,2.2,0.1,3.4c-0.2,2.5-0.9,5.1-1.9,7.5
	c-2,5-5.3,9.5-9.4,12.7c-1,0.8-2.1,1.5-3.2,2.1c-0.4,0.2-0.6,0.3-0.8,0.4c-0.2,0.1-0.5,0.2-0.8,0.3c-0.5,0.2-1.1,0.4-1.6,0.5
	c-2.1,0.6-4.1,0.4-5.9-0.4c-1.8-0.9-3.5-2.5-4.8-4.6c-0.2-0.4-0.5-0.8-0.7-1.2c0.2-0.4,0.4-0.8,0.6-1.1
	C75,116,76.5,113.5,78.2,111.1z"/>
</svg>
