<?xml version="1.0" encoding="utf-8"?>
<!-- Generator: Adobe Illustrator 20.1.0, SVG Export Plug-In . SVG Version: 6.00 Build 0)  -->
<svg version="1.1" id="图层_1" xmlns="http://www.w3.org/2000/svg" xmlns:xlink="http://www.w3.org/1999/xlink" x="0px" y="0px"
	 viewBox="0 0 200.2 200" style="enable-background:new 0 0 200.2 200;" xml:space="preserve">
<style type="text/css">
	.st0{fill:#FFFFFF;}
</style>
<path class="st0" d="M69.6,82.2h12.2v36.6H69.6C69.6,118.7,69.6,82.1,69.6,82.2z"/>
<path class="st0" d="M51.3,82.2h12.2v36.6H51.3C51.3,118.7,51.3,82.1,51.3,82.2z"/>
<path class="st0" d="M112.2,82.2H87.8v36.6h24.4V137l36.6-36.6l-36.6-36.6V82.2z"/>
<path class="st0" d="M192.1,61.1c-5.1-11.9-12.2-22.6-21.4-31.8c-9.2-9.2-19.9-16.4-31.8-21.4C126.6,2.6,113.5,0,100,0
	S73.4,2.6,61.1,7.9c-11.9,5-22.6,12.2-31.8,21.4c-9.2,9.2-16.4,19.9-21.4,31.8C2.7,73.4,0.1,86.5,0.1,100s2.6,26.6,7.9,38.9
	c5,11.9,12.2,22.6,21.4,31.8c9.2,9.2,19.9,16.4,31.8,21.4c12.3,5.2,25.4,7.8,38.9,7.8s26.6-2.6,38.9-7.8
	c11.9-5.1,22.6-12.3,31.8-21.4c9.2-9.2,16.4-19.9,21.4-31.8c5.2-12.3,7.9-25.4,7.9-38.9S197.4,73.4,192.1,61.1z M100,186.1
	c-47.5,0-86.1-38.6-86.1-86.1c0-47.5,38.6-86.1,86.1-86.1c47.5,0,86.1,38.6,86.1,86.1C186.2,147.5,147.5,186.1,100,186.1z"/>
</svg>
