<?xml version="1.0" encoding="utf-8"?>
<!-- Generator: Adobe Illustrator 20.1.0, SVG Export Plug-In . SVG Version: 6.00 Build 0)  -->
<svg version="1.1" id="图层_1" xmlns="http://www.w3.org/2000/svg" xmlns:xlink="http://www.w3.org/1999/xlink" x="0px" y="0px"
	 viewBox="0 0 64 64" style="enable-background:new 0 0 64 64;" xml:space="preserve">
<style type="text/css">
	.st0{fill:#FFFFFF;stroke:#C4C3C3;stroke-miterlimit:10;}
	.st1{fill:#C4C3C3;}
	.st2{font-family:'AdobeSongStd-Light-GBpc-EUC-H';}
	.st3{font-size:12px;}
	.st4{fill:none;stroke:#C4C3C3;stroke-miterlimit:10;}
</style>
<circle class="st0" cx="32" cy="32" r="30"/>
<circle class="st0" cx="32.1" cy="31.8" r="26.5"/>
<text transform="matrix(0.7071 -0.7071 0.7071 0.7071 21.4863 48.0911)" class="st1 st2 st3">已使用</text>
<path class="st4" d="M21.6,32c0-5.7,4.6-10.3,10.3-10.3"/>
<path class="st4" d="M42.3,32c0,5.7-4.6,10.3-10.3,10.3"/>
<polygon class="st1" points="32.1,52 32.7,53.3 34.2,53.5 33.1,54.6 33.4,56 32.1,55.3 30.8,56 31.1,54.6 30,53.5 31.5,53.3 "/>
<polygon class="st1" points="39.8,50.5 40.9,51.5 42.3,51.1 41.7,52.4 42.5,53.7 41,53.5 40.1,54.6 39.8,53.2 38.4,52.7 39.7,52 "/>
<polygon class="st1" points="46.2,46.2 47.5,46.6 48.7,45.8 48.7,47.2 49.8,48 48.5,48.5 48,49.8 47.2,48.7 45.8,48.7 46.6,47.5 "/>
<polygon class="st1" points="52,32.1 53.3,32.7 53.5,34.2 54.6,33.1 56,33.4 55.3,32.1 56,30.8 54.6,31.1 53.5,30 53.3,31.5 "/>
<polygon class="st1" points="50.5,39.8 51.5,40.9 51.1,42.3 52.4,41.7 53.7,42.5 53.5,41 54.6,40.1 53.2,39.8 52.7,38.4 52,39.7 "/>
<polygon class="st1" points="11.3,33.5 10.8,32.2 11.7,31 10.2,31 9.4,29.9 9,31.2 7.6,31.7 8.8,32.5 8.8,33.9 9.9,33.1 "/>
<polygon class="st1" points="12.2,25.3 12.3,23.9 13.6,23.1 12.2,22.6 11.9,21.2 11,22.3 9.5,22.2 10.3,23.4 9.7,24.7 11.1,24.4 "/>
<polygon class="st1" points="16.8,18.4 17.2,17 18.6,16.5 17.3,15.7 17.3,14.3 16.2,15.2 14.8,14.8 15.3,16.1 14.5,17.3 16,17.2 "/>
<polygon class="st1" points="33.5,11.3 32.2,10.8 31,11.7 31,10.2 29.9,9.4 31.2,9 31.7,7.6 32.5,8.8 33.9,8.8 33.1,9.9 "/>
<polygon class="st1" points="22.6,13.6 22.5,12.2 21.2,11.4 22.6,10.9 22.9,9.5 23.8,10.6 25.3,10.5 24.5,11.7 25.1,13 23.7,12.7 
	"/>
</svg>
