<?xml version="1.0" encoding="utf-8"?>
<!-- Generator: Adobe Illustrator 20.1.0, SVG Export Plug-In . SVG Version: 6.00 Build 0)  -->
<svg version="1.1" id="图层_1" xmlns="http://www.w3.org/2000/svg" xmlns:xlink="http://www.w3.org/1999/xlink" x="0px" y="0px"
	 viewBox="0 0 128 16" style="enable-background:new 0 0 128 16;" xml:space="preserve">
<style type="text/css">
	.st0{fill:#FF6100;}
	.st1{fill:#FFFFFF;}
	.st2{display:none;}
</style>
<rect x="0" class="st0" width="128" height="2"/>
<path class="st1" d="M1,2.1c0-0.6,0.4-1,1-1s1,0.4,1,1"/>
<path class="st1" d="M5,2.1c0-0.6,0.4-1,1-1s1,0.4,1,1"/>
<path class="st1" d="M9,2.1c0-0.6,0.4-1,1-1s1,0.4,1,1"/>
<path class="st1" d="M13,2.1c0-0.6,0.4-1,1-1s1,0.4,1,1"/>
<path class="st1" d="M17,2.1c0-0.6,0.4-1,1-1s1,0.4,1,1"/>
<path class="st1" d="M21,2.1c0-0.6,0.4-1,1-1s1,0.4,1,1"/>
<path class="st1" d="M25,2.1c0-0.6,0.4-1,1-1s1,0.4,1,1"/>
<path class="st1" d="M29,2.1c0-0.6,0.4-1,1-1s1,0.4,1,1"/>
<path class="st1" d="M33,2.1c0-0.6,0.4-1,1-1s1,0.4,1,1"/>
<path class="st1" d="M37,2.1c0-0.6,0.4-1,1-1s1,0.4,1,1"/>
<path class="st1" d="M41,2.1c0-0.6,0.4-1,1-1s1,0.4,1,1"/>
<path class="st1" d="M45,2.1c0-0.6,0.4-1,1-1s1,0.4,1,1"/>
<path class="st1" d="M49,2.1c0-0.6,0.4-1,1-1s1,0.4,1,1"/>
<path class="st1" d="M53,2.1c0-0.6,0.4-1,1-1s1,0.4,1,1"/>
<path class="st1" d="M57,2.1c0-0.6,0.4-1,1-1s1,0.4,1,1"/>
<path class="st1" d="M61,2.1c0-0.6,0.4-1,1-1s1,0.4,1,1"/>
<path class="st1" d="M65,2.1c0-0.6,0.4-1,1-1s1,0.4,1,1"/>
<path class="st1" d="M69,2.1c0-0.6,0.4-1,1-1s1,0.4,1,1"/>
<path class="st1" d="M73,2.1c0-0.6,0.4-1,1-1s1,0.4,1,1"/>
<path class="st1" d="M77,2.1c0-0.6,0.4-1,1-1s1,0.4,1,1"/>
<path class="st1" d="M81,2.1c0-0.6,0.4-1,1-1s1,0.4,1,1"/>
<path class="st1" d="M85,2.1c0-0.6,0.4-1,1-1s1,0.4,1,1"/>
<path class="st1" d="M89,2.1c0-0.6,0.4-1,1-1s1,0.4,1,1"/>
<path class="st1" d="M93,2.1c0-0.6,0.4-1,1-1s1,0.4,1,1"/>
<path class="st1" d="M97,2.1c0-0.6,0.4-1,1-1s1,0.4,1,1"/>
<path class="st1" d="M101,2.1c0-0.6,0.4-1,1-1s1,0.4,1,1"/>
<path class="st1" d="M105,2.1c0-0.6,0.4-1,1-1s1,0.4,1,1"/>
<path class="st1" d="M109,2.1c0-0.6,0.4-1,1-1s1,0.4,1,1"/>
<path class="st1" d="M113,2.1c0-0.6,0.4-1,1-1s1,0.4,1,1"/>
<path class="st1" d="M117,2.1c0-0.6,0.4-1,1-1s1,0.4,1,1"/>
<path class="st1" d="M121,2.1c0-0.6,0.4-1,1-1s1,0.4,1,1"/>
<path class="st1" d="M125,2.1c0-0.6,0.4-1,1-1s1,0.4,1,1"/>
<g id="图层_2" class="st2">
</g>
</svg>
