<?xml version="1.0" encoding="utf-8"?>
<!-- Generator: Adobe Illustrator 20.1.0, SVG Export Plug-In . SVG Version: 6.00 Build 0)  -->
<svg version="1.1" id="图层_1" xmlns="http://www.w3.org/2000/svg" xmlns:xlink="http://www.w3.org/1999/xlink" x="0px" y="0px"
	 viewBox="0 0 128 16" style="enable-background:new 0 0 128 16;" xml:space="preserve">
<style type="text/css">
	.st0{fill:#EC6521;}
</style>
<path class="st0" d="M4,0c0,1.1-0.9,2-2,2S0,1.1,0,0"/>
<path class="st0" d="M7.9,0c0,1.1-0.9,2-2,2S4,1.1,4,0"/>
<path class="st0" d="M11.9,0c0,1.1-0.9,2-2,2s-2-0.9-2-2"/>
<path class="st0" d="M15.8,0c0,1.1-0.9,2-2,2s-2-0.9-2-2"/>
<path class="st0" d="M19.8,0c0,1.1-0.9,2-2,2c-1.1,0-2-0.9-2-2"/>
<path class="st0" d="M23.8,0c0,1.1-0.9,2-2,2s-2-0.9-2-2"/>
<path class="st0" d="M27.7,0c0,1.1-0.9,2-2,2s-2-0.9-2-2"/>
<path class="st0" d="M31.7,0c0,1.1-0.9,2-2,2c-1.1,0-2-0.9-2-2"/>
<path class="st0" d="M35.6,0c0,1.1-0.9,2-2,2c-1.1,0-2-0.9-2-2"/>
<path class="st0" d="M39.6,0c0,1.1-0.9,2-2,2c-1.1,0-2-0.9-2-2"/>
<path class="st0" d="M43.5,0c0,1.1-0.9,2-2,2c-1.1,0-2-0.9-2-2"/>
<path class="st0" d="M47.5,0c0,1.1-0.9,2-2,2c-1.1,0-2-0.9-2-2"/>
<path class="st0" d="M51.5,0c0,1.1-0.9,2-2,2c-1.1,0-2-0.9-2-2"/>
<path class="st0" d="M55.4,0c0,1.1-0.9,2-2,2c-1.1,0-2-0.9-2-2"/>
<path class="st0" d="M59.4,0c0,1.1-0.9,2-2,2c-1.1,0-2-0.9-2-2"/>
<path class="st0" d="M63.3,0c0,1.1-0.9,2-2,2c-1.1,0-2-0.9-2-2"/>
<path class="st0" d="M67.3,0c0,1.1-0.9,2-2,2s-2-0.9-2-2"/>
<path class="st0" d="M71.3,0c0,1.1-0.9,2-2,2s-2-0.9-2-2"/>
<path class="st0" d="M75.2,0c0,1.1-0.9,2-2,2s-2-0.9-2-2"/>
<path class="st0" d="M79.2,0c0,1.1-0.9,2-2,2s-2-0.9-2-2"/>
<path class="st0" d="M83.1,0c0,1.1-0.9,2-2,2s-2-0.9-2-2"/>
<path class="st0" d="M87.1,0c0,1.1-0.9,2-2,2s-2-0.9-2-2"/>
<path class="st0" d="M91.1,0c0,1.1-0.9,2-2,2c-1.1,0-2-0.9-2-2"/>
<path class="st0" d="M95,0c0,1.1-0.9,2-2,2c-1.1,0-2-0.9-2-2"/>
<path class="st0" d="M99,0c0,1.1-0.9,2-2,2c-1.1,0-2-0.9-2-2"/>
<path class="st0" d="M102.9,0c0,1.1-0.9,2-2,2c-1.1,0-2-0.9-2-2"/>
<path class="st0" d="M106.9,0c0,1.1-0.9,2-2,2c-1.1,0-2-0.9-2-2"/>
<path class="st0" d="M110.8,0c0,1.1-0.9,2-2,2s-2-0.9-2-2"/>
<path class="st0" d="M114.8,0c0,1.1-0.9,2-2,2s-2-0.9-2-2"/>
<path class="st0" d="M118.8,0c0,1.1-0.9,2-2,2s-2-0.9-2-2"/>
<path class="st0" d="M122.7,0c0,1.1-0.9,2-2,2s-2-0.9-2-2"/>
<path class="st0" d="M126.7,0c0,1.1-0.9,2-2,2s-2-0.9-2-2"/>
</svg>
