<?xml version="1.0" encoding="utf-8"?>
<!-- Generator: Adobe Illustrator 20.1.0, SVG Export Plug-In . SVG Version: 6.00 Build 0)  -->
<svg version="1.1" id="图层_1" xmlns="http://www.w3.org/2000/svg" xmlns:xlink="http://www.w3.org/1999/xlink" x="0px" y="0px"
	 viewBox="0 0 200 200" style="enable-background:new 0 0 200 200;" xml:space="preserve">
<style type="text/css">
	.st0{fill:#DB4D6D;}
</style>
<path class="st0" d="M155.7,134.7c24.8-25.3,24.4-66.1-0.9-90.8S88.8,19.5,64,44.9c-23.3,23.9-24.3,61.6-2.9,86.5
	c-0.1,0.1-0.2,0.1-0.3,0.2l-8.2,8.4l-16.7-16.3c-2.3-2.2-6.1-2.2-8.3,0.1c-2.2,2.3-2.2,6.1,0.1,8.3l16.7,16.3l-4.1,4.2
	c-2.2,2.3-2.2,6.1,0.1,8.3c2.3,2.2,6.1,2.2,8.3-0.1l4.1-4.2l16.7,16.4c2.3,2.2,6.1,2.2,8.3-0.1c2.2-2.3,2.2-6.1-0.1-8.3L61,148.1
	l8.2-8.4c0.1-0.1,0.1-0.2,0.2-0.3C94.8,160.3,132.4,158.7,155.7,134.7L155.7,134.7z M73.1,127.3C52.4,107.1,52.1,73.8,72.5,53
	c20.2-20.7,53.5-21.1,74.2-0.7c20.7,20.2,21.1,53.5,0.7,74.3C127.1,147.3,93.7,147.6,73.1,127.3L73.1,127.3z"/>
</svg>
