<?xml version="1.0" encoding="utf-8"?>
<!-- Generator: Adobe Illustrator 20.1.0, SVG Export Plug-In . SVG Version: 6.00 Build 0)  -->
<svg version="1.1" id="图层_1" xmlns="http://www.w3.org/2000/svg" xmlns:xlink="http://www.w3.org/1999/xlink" x="0px" y="0px"
	 viewBox="0 0 200 200" style="enable-background:new 0 0 200 200;" xml:space="preserve">
<style type="text/css">
	.st0{fill:#FFFFFF;}
	.st1{fill:#F2765A;}
	.st2{fill:#6D5AF1;}
	.st3{fill:#5A9EF1;}
	.st4{fill:#5BE5F0;}
	.st5{fill:#5EF15A;}
	.st6{fill:#BAF05A;}
	.st7{fill:#F1DD5A;}
	.st8{fill:#F0B35A;}
</style>
<path class="st0" d="M139.8,160H58.3c-10.9,0-19.7-8.8-19.7-19.6V59.2c0-10.8,8.8-19.6,19.7-19.6h81.5c10.9,0,19.7,8.8,19.7,19.6
	v81.3C159.5,151.2,150.7,160,139.8,160L139.8,160L139.8,160"/>
<polyline points="109.4,74.9 109.4,74.9 109.4,74.9 109.4,74.9 109.4,74.9 109.4,74.9 109.4,74.9 109.4,74.9 "/>
<path class="st1" d="M99.1,59.9c-1.5,0-3,0.1-4.5,0.2c-3.7,0.4-7.1,1.3-10.4,2.6c0,0,27,26.5,27.7,27.5V62c-0.8-0.3-1.6-0.5-2.4-0.8
	C106.2,60.4,102.7,59.9,99.1,59.9L99.1,59.9L99.1,59.9L99.1,59.9L99.1,59.9L99.1,59.9"/>
<polyline points="109.4,74.9 109.4,74.9 109.4,74.9 109.4,74.9 109.4,74.9 109.4,74.9 109.4,74.9 109.4,74.9 109.4,74.9 "/>
<polyline points="123.9,89.3 123.9,89.3 123.9,89.2 123.9,89.3 123.9,89.3 123.9,89.3 123.9,89.3 123.9,89.3 "/>
<path class="st2" d="M127.3,71.5c-1.1-1.1-2.2-2.1-3.4-3c-2.9-2.3-5.9-4-9.2-5.4c0,0,0.2,37.7,0,38.9l20.2-20
	c-0.4-0.8-0.8-1.5-1.2-2.2C131.9,76.7,129.9,74,127.3,71.5L127.3,71.5L127.3,71.5L127.3,71.5L127.3,71.5L127.3,71.5"/>
<polyline points="123.9,89.3 123.9,89.2 123.9,89.3 123.9,89.3 123.9,89.3 123.9,89.3 123.9,89.3 123.9,89.3 123.9,89.3 "/>
<polyline points="124,110.1 124,110.1 123.9,110.1 124,110.1 124,110.1 124,110.1 124,110.1 124,110.1 "/>
<path class="st3" d="M136.1,85c0,0-26.7,26.8-27.7,27.5h28.5c0.3-0.8,0.5-1.6,0.8-2.4c0.9-3.3,1.4-6.7,1.4-10.3c0-1.5-0.1-3-0.3-4.5
	C138.4,91.7,137.5,88.3,136.1,85L136.1,85L136.1,85L136.1,85L136.1,85L136.1,85"/>
<polyline points="124,110.1 123.9,110.1 124,110.1 124,110.1 124,110.1 124,110.1 124,110.1 124,110.1 124,110.1 "/>
<polyline points="109.3,124.7 109.2,124.7 109.3,124.7 109.3,124.7 109.3,124.7 109.3,124.7 109.3,124.7 109.3,124.7 "/>
<path class="st4" d="M96.5,115.6l20.2,20c0.8-0.4,1.5-0.8,2.3-1.2c3-1.7,5.8-3.8,8.3-6.3c1.1-1.1,2.1-2.2,3-3.4
	c2.3-2.8,4.1-5.9,5.5-9.1C135.7,115.6,97.7,115.7,96.5,115.6L96.5,115.6L96.5,115.6L96.5,115.6L96.5,115.6L96.5,115.6"/>
<polyline points="109.3,124.7 109.3,124.7 109.2,124.7 109.3,124.7 109.3,124.7 109.3,124.7 109.3,124.7 109.3,124.7 109.3,124.7 
	"/>
<polyline points="88.6,124.7 88.7,124.7 88.6,124.6 88.6,124.7 88.6,124.7 88.6,124.7 88.6,124.7 88.6,124.7 "/>
<path class="st5" d="M86.2,109.2v28.3c0.8,0.3,1.6,0.5,2.4,0.8c3.3,0.9,6.8,1.4,10.4,1.4c1.5,0,3-0.1,4.5-0.2
	c3.7-0.4,7.1-1.3,10.4-2.6C113.9,136.7,86.9,110.2,86.2,109.2L86.2,109.2L86.2,109.2L86.2,109.2L86.2,109.2L86.2,109.2"/>
<polyline points="88.6,124.7 88.6,124.6 88.7,124.7 88.6,124.7 88.6,124.7 88.6,124.7 88.6,124.7 88.6,124.7 88.6,124.7 "/>
<polyline points="74.1,110.2 74.1,110.1 74.1,110.1 74.1,110.2 74.1,110.2 74.1,110.2 74.1,110.2 74.1,110.2 "/>
<path class="st6" d="M83.3,97.4l-20.1,20c0.4,0.8,0.8,1.5,1.2,2.3c1.7,3,3.8,5.7,6.3,8.2c1.1,1.1,2.2,2.1,3.4,3
	c2.9,2.3,5.9,4,9.2,5.4C83.3,136.4,83.2,98.7,83.3,97.4L83.3,97.4L83.3,97.4L83.3,97.4L83.3,97.4L83.3,97.4"/>
<polyline points="74.1,110.2 74.1,110.1 74.1,110.1 74.1,110.2 74.1,110.2 74.1,110.2 74.1,110.2 74.1,110.2 74.1,110.2 "/>
<polyline points="74.1,89.5 74.1,89.5 74.1,89.5 74.1,89.5 74.1,89.5 74.1,89.5 74.1,89.5 74.1,89.5 "/>
<path class="st7" d="M60.4,89.4c-0.9,3.3-1.4,6.7-1.4,10.3c0,1.5,0.1,3,0.3,4.5c0.4,3.6,1.3,7.1,2.7,10.3c0,0,26.7-26.8,27.7-27.5
	H61.1C60.8,87.8,60.6,88.7,60.4,89.4L60.4,89.4L60.4,89.4L60.4,89.4L60.4,89.4L60.4,89.4"/>
<polyline points="74.1,89.5 74.1,89.5 74.1,89.5 74.1,89.5 74.1,89.5 74.1,89.5 74.1,89.5 74.1,89.5 74.1,89.5 "/>
<polyline points="88.6,75 88.6,75 88.6,75 88.6,75 88.6,75 88.6,75 88.6,75 88.6,75 "/>
<path class="st8" d="M79,65.4c-3,1.7-5.8,3.8-8.3,6.3c-1.1,1.1-2.1,2.2-3,3.4c-2.3,2.8-4.1,5.9-5.5,9.1c0,0,38-0.2,39.2,0l-20.2-20
	C80.4,64.5,79.7,65,79,65.4L79,65.4L79,65.4L79,65.4L79,65.4L79,65.4"/>
<polyline points="88.6,75 88.6,75 88.6,75 88.6,75 88.6,75 88.6,75 88.6,75 88.6,75 88.6,75 "/>
<path d="M88.6,75L88.6,75z"/>
</svg>
