<?xml version="1.0" encoding="utf-8"?>
<!-- Generator: Adobe Illustrator 20.1.0, SVG Export Plug-In . SVG Version: 6.00 Build 0)  -->
<svg version="1.1" id="图层_1" xmlns="http://www.w3.org/2000/svg" xmlns:xlink="http://www.w3.org/1999/xlink" x="0px" y="0px"
	 viewBox="0 0 200 200" style="enable-background:new 0 0 200 200;" xml:space="preserve">
<style type="text/css">
	.st0{fill:#DB4D6D;}
	.st1{fill:#2EA9DF;}
</style>
<path class="st0" d="M88.2,138c-25.4,7.7-52.5-6.6-60.1-32.1s6.5-52.5,32-60.2c2.2-0.7,4.4-1.2,6.5-1.5c2.6-0.4,5,1.3,5.3,4
	c0.4,2.6-1.3,5-4,5.3c-1.7,0.3-3.6,0.7-5.3,1.2c-20.5,6.3-32.2,28-25.9,48.6s28,32.2,48.6,25.9c20.5-6.3,32.2-28,25.8-48.6
	c-1.7-5.3-4.3-10.2-7.9-14.3c-1.7-1.9-1.5-4.9,0.5-6.5c1.9-1.7,4.9-1.5,6.5,0.5c4.6,5.1,7.9,11.1,9.8,17.7
	C128.1,103.1,113.7,130.2,88.2,138z"/>
<path class="st0" d="M74.2,174c-2.7,0-4.6-2.1-4.6-4.6v-34.1c0-2.7,2.1-4.6,4.6-4.6c2.6,0,4.6,2.1,4.6,4.6v34.1
	C78.8,172,76.8,174,74.2,174z"/>
<path class="st0" d="M97.6,157.9h-47c-2.7,0-4.6-2.1-4.6-4.6c0-2.7,2.1-4.6,4.6-4.6h47.1c2.7,0,4.6,2.1,4.6,4.6
	C102.3,155.8,100.3,157.9,97.6,157.9z"/>
<path class="st1" d="M169.9,58.6L169.9,58.6c-2.3,0-4.2-1.8-4.2-4.2V30.2c0-2.3,1.8-4.2,4.2-4.2l0,0c2.3,0,4.2,1.8,4.2,4.2v24.4
	C174,56.8,172.2,58.6,169.9,58.6z"/>
<path class="st1" d="M143.3,35.1c-2.6,0-4.6-2-4.6-4.6s2-4.6,4.6-4.6h26.3c2.6,0,4.6,2,4.6,4.6s-2,4.6-4.6,4.6
	C169.6,35.1,143.3,35.1,143.3,35.1z"/>
<path class="st1" d="M128.1,132.4c-2.2,0.8-4.4,1.5-6.6,2c-2.5,0.6-4.9-1-5.4-3.5c-0.6-2.5,0.9-4.9,3.4-5.4
	c11.7-2.7,21.5-10.6,26.4-21.5c8.4-18.9-0.2-41.4-19.1-49.7c-13.2-5.9-28.1-3.8-39.3,5.2c-4.6,3.6-8.3,8.4-10.7,13.8
	c-6.4,14.3-3.1,31.2,7.9,42.1c1.7,1.7,1.7,4.6,0,6.4c-1.7,1.7-4.6,1.7-6.4,0C64.5,108,60.5,87,68.5,69.3c3-6.7,7.4-12.5,13.2-17.2
	c13.9-11.3,32.5-13.9,48.7-6.5c23.5,10.5,34.3,38.2,23.7,61.8C149.2,118.9,139.6,127.9,128.1,132.4z"/>
<path class="st1" d="M141.3,63.3c-1.2,0-2.3-0.5-3.1-1.3c-1.7-1.7-1.7-4.6,0-6.4l28.2-28.2c1.7-1.7,4.6-1.7,6.4,0
	c1.7,1.7,1.7,4.6,0,6.4l-28.2,28.2C143.7,62.8,142.4,63.3,141.3,63.3z"/>
</svg>
