<?xml version="1.0" encoding="utf-8"?>
<!-- Generator: Adobe Illustrator 20.1.0, SVG Export Plug-In . SVG Version: 6.00 Build 0)  -->
<svg version="1.1" id="图层_1" xmlns="http://www.w3.org/2000/svg" xmlns:xlink="http://www.w3.org/1999/xlink" x="0px" y="0px"
	 viewBox="0 0 474.5 160" style="enable-background:new 0 0 474.5 160;" xml:space="preserve">
<style type="text/css">
	.st0{fill:#FB8C00;}
	.st1{fill:#FDAC23;}
</style>
<ellipse transform="matrix(0.9784 -0.2065 0.2065 0.9784 -14.4348 15.5146)" class="st0" cx="67.1" cy="76.9" rx="10.2" ry="13.1"/>
<ellipse transform="matrix(0.23 -0.9732 0.9732 0.23 -13.5183 157.1844)" class="st0" cx="92.6" cy="87.1" rx="13.1" ry="10.2"/>
<ellipse transform="matrix(0.9578 -0.2874 0.2874 0.9578 -22.3461 15.9676)" class="st0" cx="43.2" cy="84.1" rx="10.2" ry="13.1"/>
<ellipse transform="matrix(0.8218 -0.5698 0.5698 0.8218 -55.1857 35.7692)" class="st0" cx="29.6" cy="106.1" rx="10.2" ry="13.1"/>
<g>
	<ellipse transform="matrix(0.9784 -0.2065 0.2065 0.9784 -22.7032 16.4995)" class="st1" cx="67.7" cy="117" rx="23.1" ry="24.2"/>
	
		<ellipse transform="matrix(0.9784 -0.2065 0.2065 0.9784 -25.8924 14.3504)" class="st1" cx="55.8" cy="131.2" rx="14.7" ry="16.5"/>
	
		<ellipse transform="matrix(0.9784 -0.2065 0.2065 0.9784 -24.0744 19.9623)" class="st1" cx="83.6" cy="125.3" rx="14.7" ry="16.5"/>
	
		<rect x="57.4" y="129.3" transform="matrix(0.9784 -0.2065 0.2065 0.9784 -26.7257 17.7341)" class="st1" width="28.4" height="15.2"/>
</g>
<ellipse transform="matrix(0.1469 -0.9892 0.9892 0.1469 113.4852 190.4185)" class="st0" cx="167.1" cy="29.4" rx="13.1" ry="10.2"/>
<ellipse transform="matrix(0.5543 -0.8323 0.8323 0.5543 43.6946 177.3196)" class="st0" cx="187.4" cy="47.9" rx="13.1" ry="10.2"/>
<ellipse transform="matrix(6.398240e-02 -0.998 0.998 6.398240e-02 105.3741 167.9161)" class="st0" cx="142.2" cy="27.8" rx="13.1" ry="10.2"/>
<ellipse transform="matrix(0.9687 -0.2482 0.2482 0.9687 -7.0407 31.5725)" class="st0" cx="121.7" cy="43.7" rx="10.2" ry="13.1"/>
<g>
	
		<ellipse transform="matrix(0.1469 -0.9892 0.9892 0.1469 64.6212 209.4661)" class="st1" cx="153.7" cy="67.3" rx="24.2" ry="23.1"/>
	
		<ellipse transform="matrix(0.1469 -0.9892 0.9892 0.1469 41.8017 201.1444)" class="st1" cx="137.5" cy="76.3" rx="16.5" ry="14.7"/>
	
		<ellipse transform="matrix(0.1469 -0.9892 0.9892 0.1469 61.6937 232.7158)" class="st1" cx="165.8" cy="80.6" rx="16.5" ry="14.7"/>
	
		<rect x="142.6" y="73" transform="matrix(0.1469 -0.9892 0.9892 0.1469 41.8751 222.9782)" class="st1" width="15.2" height="28.4"/>
</g>
<g>
	<path class="st1" d="M312,67.8c1,0,1.6,0.7,1.6,2.1c-2.8,8.3-9,15.5-18.4,21.5c-0.5,0-1,0.5-1.6,1.6c0,0.5,6,2.3,17.9,5.2
		c6.3,2.2,10.1,4.2,11.6,5.7v4.8l-3.7,0.5c-16.3-6.3-28.2-9.4-35.8-9.4h-0.5v1h-3.7c-0.5,0-1-0.5-1.6-1.6v-2.1c0-1,4.2-2.6,12.6-4.7
		c12.1-11.5,18.5-18.5,18.9-21h-0.5l-23.7,6.3h-1c-1.4-0.6-2.1-1.8-2.1-3.1l2.1-1.6h0.5v1c13.4-4.2,21.7-6.3,25.3-6.3h2.1V67.8z
		 M291.6,51c7.3,1.4,11.1,3.7,11.1,6.9l-1.6,1h-2.6c-2.4,0-5.2-1.9-8.5-5.7v-0.5C290,52.1,290.5,51.5,291.6,51z"/>
	<path class="st1" d="M370.2,64l0.5,1c0,1.4-4.9,2.7-14.7,4.2l0.5,1l-2.6,11.6h0.5c4.4-1.4,7.6-2.1,9.5-2.1c1,1.4,1.6,2.9,1.6,4.8
		v2.1c0,7-1.4,15.1-4.2,24.2c-1.1,1-2,1.6-2.6,1.6c-2.5-1-3.7-4-3.7-9c0.1-0.7,0.5-1,1-1c0.9,3.1,1.8,4.8,2.6,4.8
		c2.8-7.5,4.2-14.6,4.2-21.6v-3.1h-1c-6.7,0-10,2.4-10,7.3c-2.7,11-4.4,16.8-5.2,17.3h-0.5c-0.7,0-1-0.3-1-1v-0.5
		c0-5.3,3.1-17.3,9.4-35.7c-7.6,2.1-12.1,3.1-13.7,3.1v-1.6C346.4,69.2,356.2,66.8,370.2,64z M351.8,51.9h0.5c4.6,3,6.8,5.8,6.8,8.5
		c0,0.7-0.3,1-1,1c-2.1-1.5-4.5-4.3-7.4-8.4C350.9,52.2,351.2,51.9,351.8,51.9z M377.6,48.1v0.5L375,78.2l12.6-9h1v1
		c-7.7,6.7-11.6,10.1-11.6,10.5c0,1.4-0.3,8.7-1,22c2-1.4,5.1-4.2,9.5-8.4h0.5V95c-3,6.5-6.6,11.1-10.5,13.7H374
		c-0.5,0-1-0.5-1.6-1.6c0-3,0.8-11.6,2.6-25.8h-0.5c-0.6,0-1.5-0.5-2.6-1.6C373.3,58.6,375.3,48.1,377.6,48.1z M389.7,60.3v1.6
		c0,1.1-3.7,2.5-11.1,4.2h-1v-1.6C383.3,61.7,387.2,60.3,389.7,60.3z M392.9,78.2v1.6c-3.2,4-8.1,7.2-14.7,10v-0.5
		C385,81.8,390.1,78.2,392.9,78.2z M386,87.6h1c9.1,9.3,13.7,16.4,13.7,21.1c-0.5,1.4-1,2.1-1.6,2.1h-2.1c-3.3-9.6-7-17-11.1-22
		V87.6z"/>
	<path class="st1" d="M438.2,60.2v0.5c-2.7,5.1-5.5,9.9-8.4,14.2c0.3,1.4,0.5,14.1,0.5,38.3c-0.6,0.3-1.3,0.5-2.1,0.5h-1
		c0-0.2-0.2-1.3-0.5-3.1c0.7-17.3,1-28,1-32.1v-0.5h-0.5c-6.3,12.6-9.4,19.5-9.4,20.5h-4.2V98c0-6.3,7.7-18.8,23.1-37.9h1.5V60.2z
		 M432.4,46h2.6v1c-2.9,4.2-8,12.5-15.2,25.3h-1.6c-0.7,0-1-0.5-1-1.6C417.1,68.4,422.2,60.2,432.4,46z M468.7,68.1v1.6
		c0,1-8.3,3.3-24.6,6.8h-2.7c-0.7,0-1-0.3-1-1v-0.5c0-0.7,0.5-1,1.6-1l2.1,0.5C458.5,70.2,466.6,68.1,468.7,68.1z M461.8,56v2.6
		h-0.5l-19.9,3.7v-1.6C450,58.3,456.8,56.8,461.8,56z M459.7,76.5h1.6c1.6,0,2.6,9,3.1,26.8c-0.7,7.3-2.8,11.1-6.3,11.1
		c-6.3-1.3-10.1-2.8-11.6-4.8v-0.5c5.3,1,9,1.6,11.1,1.6c1-1.8,1.6-3,1.6-3.7C459.5,93.1,459.7,83,459.7,76.5z"/>
</g>
<g>
	<path class="st1" d="M250.5,68.9v1c0,0.9-2.3,2.2-6.9,3.7c0,1.7-0.2,3.4-0.5,5.2c0,0.4,0.2,0.9,0.5,1.6c-0.3,1.9-0.7,6.8-1,14.7
		c1.9,0,5.6-2.5,11.6-7.4h2.1v1.6c-2.2,3-5.8,6-11.1,9c0,0.9-1.6,1.9-4.7,2.6l-1-1.6v-5.2c0-4,0.2-10.1,0.5-18.4h-0.5
		c-6.7,2.5-14.1,4.6-22.1,6.4l-0.5-1v-2.1c12.8-3.6,23.9-6.8,33.1-9.9h0.6V68.9z M240.6,47.8h2.6c0.7,0.1,1,0.4,1,1
		c-0.3,1.9-0.5,2.9-0.5,3.1c0,1.8,0.3,2.6,1,2.6h1.6c0.7,1.3,1,2.7,1,4.2v0.6c-2.1,1.5-3.1,2.7-3.1,3.7c-0.3,4.6-1.3,6.8-2.6,6.8h-1
		l-1-0.5c0.2-2.1,0.6-3.1,1-3.1l-0.5-1v-2.6c-9.4,2.1-14.3,3.1-14.7,3.1v-2.1c2.4-1,7.5-2.8,15.2-5.2v-1c0-0.8-0.2-3.4-0.5-7.9
		C240.4,48.7,240.6,48.2,240.6,47.8z M229.5,82.5h2.1c0.7,0.1,1,0.4,1,1c-2.4,6.8-3.7,12.5-3.7,17.3c0,2.6,7.3,5.1,15.4,7
		c3.2-0.3,13.5-2,16.2-2c-0.9,2.8-11,5.5-15.9,5.5h-1c-5.7,0-14-2.6-17.8-7.8V102C225.9,95.5,227,89,229.5,82.5z"/>
</g>
<g>
</g>
</svg>
