<?xml version="1.0" encoding="utf-8"?>
<!-- Generator: Adobe Illustrator 20.1.0, SVG Export Plug-In . SVG Version: 6.00 Build 0)  -->
<svg version="1.1" id="图层_1" xmlns="http://www.w3.org/2000/svg" xmlns:xlink="http://www.w3.org/1999/xlink" x="0px" y="0px"
	 viewBox="0 0 200 200" style="enable-background:new 0 0 200 200;" xml:space="preserve">
<style type="text/css">
	.st0{fill:#2EA9DF;}
</style>
<path class="st0" d="M173.7,30.4c-0.1-0.3-0.1-0.6-0.2-0.7l0,0c-0.2-0.4-0.4-0.7-0.6-1l0,0c-0.2-0.3-0.3-0.5-0.4-0.7
	c-0.1-0.1-0.1-0.1-0.2-0.1c-0.3-0.3-0.7-0.6-0.9-0.7l0,0c-0.3-0.2-0.6-0.4-0.8-0.6l0,0c-0.7-0.3-1.5-0.6-2.4-0.6h-39.9
	c-3.1,0-5.7,2.7-5.7,5.7s2.6,5.7,5.7,5.7h24.8l-27.1,24C115.6,53.7,102.7,49,88.6,49C54,49,26,77,26,111.6s28.1,62.6,62.6,62.6
	s62.6-28.1,62.6-62.6c0-16.3-6.4-31.3-16.7-42.4l28-24.7V66c0,3.1,2.6,5.7,5.7,5.7c3.1,0,5.7-2.7,5.7-5.7V31.7
	C174.1,31.1,173.8,30.8,173.7,30.4z M139.9,111.4c0,28.3-23,51.2-51.2,51.2s-51.2-23-51.2-51.2c0-28.2,23-51.2,51.2-51.2
	C116.8,60.2,139.9,83.2,139.9,111.4z"/>
</svg>
