<?xml version="1.0" encoding="utf-8"?>
<!-- Generator: Adobe Illustrator 20.1.0, SVG Export Plug-In . SVG Version: 6.00 Build 0)  -->
<svg version="1.1" id="图层_1" xmlns="http://www.w3.org/2000/svg" xmlns:xlink="http://www.w3.org/1999/xlink" x="0px" y="0px"
	 viewBox="0 0 200 200" style="enable-background:new 0 0 200 200;" xml:space="preserve">
<style type="text/css">
	.st0{fill:#FFFFFF;}
	.st1{fill:#5EF15A;}
</style>
<path class="st0" d="M140.5,159.8H59.5c-10.8,0-19.5-8.7-19.5-19.4V59.7c0-10.7,8.7-19.4,19.5-19.4h80.9c10.8,0,19.5,8.7,19.5,19.4
	v80.7C160,151,151.3,159.8,140.5,159.8L140.5,159.8L140.5,159.8"/>
<path class="st1" d="M119.3,105.9V91.1c-35.2-1.4-47.4,22.2-47.4,22.2c3.4-41.8,47.4-40,47.4-40V60L140,82.2v1.5L119.3,105.9z
	 M131.1,111.8c0-0.8,0.7-1.5,1.5-1.5h4.5c0.8,0,1.5,0.7,1.5,1.5v20.7v7.4h-7.4H67.4H60v-7.4v-20.7c0-0.8,0.7-1.5,1.5-1.5h4.5
	c0.8,0,1.5,0.7,1.5,1.5v20.7h63.7L131.1,111.8L131.1,111.8z"/>
</svg>
