<?xml version="1.0" encoding="utf-8"?>
<!-- Generator: Adobe Illustrator 20.1.0, SVG Export Plug-In . SVG Version: 6.00 Build 0)  -->
<svg version="1.1" id="图层_1" xmlns="http://www.w3.org/2000/svg" xmlns:xlink="http://www.w3.org/1999/xlink" x="0px" y="0px"
	 viewBox="0 0 160 160" style="enable-background:new 0 0 160 160;" xml:space="preserve">
<style type="text/css">
	.st0{fill:#FB8C00;}
	.st1{fill:#FDAC23;}
</style>
<ellipse transform="matrix(0.9784 -0.2065 0.2065 0.9784 -14.2353 10.7344)" class="st0" cx="44.3" cy="73.6" rx="8.8" ry="11.3"/>
<ellipse transform="matrix(0.23 -0.9732 0.9732 0.23 -29.1348 127.8871)" class="st0" cx="66.2" cy="82.4" rx="11.3" ry="8.8"/>
<ellipse transform="matrix(0.9578 -0.2874 0.2874 0.9578 -21.9267 10.1759)" class="st0" cx="23.7" cy="79.8" rx="8.8" ry="11.3"/>
<ellipse transform="matrix(0.8218 -0.5698 0.5698 0.8218 -54.128 24.4125)" class="st0" cx="12" cy="98.7" rx="8.8" ry="11.3"/>
<g>
	
		<ellipse transform="matrix(0.9784 -0.2065 0.2065 0.9784 -21.3646 11.5864)" class="st1" cx="44.8" cy="108.1" rx="19.9" ry="20.9"/>
	<ellipse transform="matrix(0.9784 -0.2065 0.2065 0.9784 -24.115 9.7312)" class="st1" cx="34.6" cy="120.4" rx="12.7" ry="14.2"/>
	
		<ellipse transform="matrix(0.9784 -0.2065 0.2065 0.9784 -22.5473 14.5722)" class="st1" cx="58.5" cy="115.3" rx="12.7" ry="14.2"/>
	
		<rect x="35.9" y="118.7" transform="matrix(0.9784 -0.2065 0.2065 0.9784 -24.836 12.6514)" class="st1" width="24.5" height="13.1"/>
</g>
<ellipse transform="matrix(0.1469 -0.9892 0.9892 0.1469 79.1 156.9796)" class="st0" cx="130.6" cy="32.6" rx="11.3" ry="8.8"/>
<ellipse transform="matrix(0.5543 -0.8323 0.8323 0.5543 25.5919 144.8886)" class="st0" cx="148.1" cy="48.5" rx="11.3" ry="8.8"/>
<ellipse transform="matrix(6.397927e-02 -0.998 0.998 6.397927e-02 70.9712 138.0644)" class="st0" cx="109.1" cy="31.2" rx="11.3" ry="8.8"/>
<ellipse transform="matrix(0.9687 -0.2482 0.2482 0.9687 -8.2914 24.0888)" class="st0" cx="91.4" cy="44.9" rx="8.8" ry="11.3"/>
<g>
	
		<ellipse transform="matrix(0.1469 -0.9892 0.9892 0.1469 36.9801 173.4601)" class="st1" cx="119.1" cy="65.3" rx="20.9" ry="19.9"/>
	<ellipse transform="matrix(0.1469 -0.9892 0.9892 0.1469 17.2918 166.1988)" class="st1" cx="105" cy="73.1" rx="14.2" ry="12.7"/>
	
		<ellipse transform="matrix(0.1469 -0.9892 0.9892 0.1469 34.5241 193.4381)" class="st1" cx="129.4" cy="76.7" rx="14.2" ry="12.7"/>
	
		<rect x="109.4" y="70.2" transform="matrix(0.1469 -0.9892 0.9892 0.1469 17.3767 185.049)" class="st1" width="13.1" height="24.5"/>
</g>
</svg>
